# Alias Wavefront OBJ File Exported from SketchUp
# with OBJexporter (c) 2013 TIG
# Units = meters

mtllib city_marker.mtl

g canterbury_city_marker-SKP-Default_Material
usemtl Default_Material
v 0.5 0 -0.5
v -0.5 0 0.5
v -0.5 0 -0.5
v 0.5 0 0.5
v 0.5 0.6 0.5
v 0.5 0.6 -0.5
v -0.5 0.6 -0.5
v -0.5 0.6 0.5
v -0.675 0.717857142857 -0.5
v -0.675 0.6 -0.5
v 0.675 0.6 -0.5
v 0.675 0.717857142857 -0.5
v 0 1.2 -0.5
v -0.675 0.6 0.5
v 0.675 0.6 0.5
v -0.675 0.717857142857 0.5
v 0.675 0.717857142857 0.5
v 0 1.2 0.5
vt -19.6850393701 19.6850393701
vt 19.6850393701 -19.6850393701
vt 19.6850393701 19.6850393701
vt -19.6850393701 -19.6850393701
vt 19.6850393701 0
vt -19.6850393701 23.6220472441
vt -19.6850393701 0
vt 19.6850393701 23.6220472441
vt 26.5748031496 28.2620922385
vt 26.5748031496 23.6220472441
vt -26.5748031496 23.6220472441
vt -26.5748031496 28.2620922385
vt 0 47.2440944882
vt 26.5748031496 -19.6850393701
vt 26.5748031496 19.6850393701
vt -26.5748031496 19.6850393701
vt -26.5748031496 -19.6850393701
vt -19.6850393701 28.2620922385
vt 19.6850393701 28.2620922385
vt 19.6850393701 27.4600721442
vt -19.6850393701 -5.19779937015
vt 19.6850393701 -5.19779937015
vt -19.6850393701 27.4600721442
vn 0 -1 0
vn 1 0 0
vn -1 0 0
vn 0 0 -1
vn 1 3.82831813388e-15 0
vn 0 0 1
vn -0.581238193719 0.813733471207 0
vn 0.581238193719 0.813733471207 0
f 1/1/1 2/2/1 3/3/1
f 2/2/1 1/1/1 4/4/1
f 1/5/2 5/6/2 4/7/2
f 5/6/2 1/5/2 6/8/2
f 7/6/3 2/5/3 8/8/3
f 2/5/3 7/6/3 3/7/3
f 9/9/4 7/8/4 10/10/4
f 7/8/4 9/9/4 6/6/4
f 6/6/4 9/9/4 11/11/4
f 11/11/4 9/9/4 12/12/4
f 12/12/4 9/9/4 13/13/4
f 7/8/4 1/7/4 3/5/4
f 1/7/4 7/8/4 6/6/4
f 7/3/1 14/14/1 10/15/1
f 14/14/1 7/3/1 8/2/1
f 11/16/1 5/4/1 6/1/1
f 5/4/1 11/16/1 15/17/1
f 9/18/3 14/8/3 16/19/3
f 14/8/3 9/18/3 10/6/3
f 11/8/5 17/18/5 15/6/5
f 17/18/5 11/8/5 12/19/5
f 17/9/6 5/8/6 15/10/6
f 5/8/6 17/9/6 8/6/6
f 8/6/6 17/9/6 14/11/6
f 14/11/6 17/9/6 16/12/6
f 16/12/6 17/9/6 18/13/6
f 5/8/6 2/7/6 4/5/6
f 2/7/6 5/8/6 8/6/6
f 18/20/7 9/21/7 16/22/7
f 9/21/7 18/20/7 13/23/7
f 17/21/8 13/20/8 18/23/8
f 13/20/8 17/21/8 12/22/8

#EOF
